<svg width="535" height="514" viewBox="0 0 535 514" fill="none" xmlns="http://www.w3.org/2000/svg">
<path d="M236.132 96.5455C236.589 96.5455 237.027 96.727 237.35 97.0501C237.673 97.3732 237.855 97.8114 237.855 98.2683V101.714C237.855 102.171 237.673 102.609 237.35 102.932C237.027 103.255 236.589 103.437 236.132 103.437H100.031C99.5741 103.437 99.1359 103.255 98.8128 102.932C98.4897 102.609 98.3082 102.171 98.3082 101.714V98.2683C98.3082 97.8114 98.4897 97.3732 98.8128 97.0501C99.1359 96.727 99.5741 96.5455 100.031 96.5455H236.132" fill="#E6E6E6"/>
<path d="M50.288 338.108C50.288 343.631 54.7651 348.108 60.288 348.108H250.288C255.811 348.108 260.288 343.631 260.288 338.108V26.1082C260.288 20.5854 255.811 16.1082 250.288 16.1082H60.288C54.7651 16.1082 50.288 20.5854 50.288 26.1082V338.108Z" fill="#2F2E41"/>
<rect x="55.288" y="22.1082" width="200" height="321" rx="10" fill="white"/>
<path d="M88.288 200.108C87.7577 200.109 87.2493 200.32 86.8744 200.695C86.4994 201.07 86.2885 201.578 86.288 202.108V295.024C86.2886 295.554 86.4995 296.062 86.8745 296.437C87.2494 296.812 87.7577 297.023 88.288 297.024H222.419C222.949 297.023 223.457 296.812 223.832 296.437C224.207 296.062 224.418 295.554 224.419 295.024V202.108C224.418 201.578 224.207 201.07 223.832 200.695C223.458 200.32 222.949 200.109 222.419 200.108H88.288Z" fill="#6C63FF"/>
<path d="M224.112 64.1082C224.338 64.1082 224.562 64.1528 224.771 64.2394C224.98 64.326 225.17 64.4529 225.33 64.6129C225.49 64.7728 225.617 64.9627 225.703 65.1718C225.79 65.3808 225.835 65.6048 225.835 65.8311V69.2766C225.835 69.7336 225.653 70.1718 225.33 70.4948C225.007 70.8179 224.569 70.9995 224.112 70.9995H88.0108C87.7846 70.9995 87.5605 70.9549 87.3515 70.8683C87.1425 70.7817 86.9526 70.6548 86.7926 70.4948C86.6326 70.3349 86.5057 70.145 86.4192 69.9359C86.3326 69.7269 86.288 69.5029 86.288 69.2766V65.8311C86.288 65.6048 86.3326 65.3808 86.4191 65.1718C86.5057 64.9627 86.6326 64.7728 86.7926 64.6129C86.9526 64.4529 87.1425 64.326 87.3515 64.2394C87.5605 64.1528 87.7846 64.1082 88.0108 64.1082H224.112" fill="#E6E6E6"/>
<path d="M224.112 130.108C224.569 130.108 225.007 130.29 225.33 130.613C225.653 130.936 225.835 131.374 225.835 131.831V135.277C225.835 135.503 225.79 135.727 225.703 135.936C225.617 136.145 225.49 136.335 225.33 136.495C225.17 136.655 224.98 136.782 224.771 136.868C224.562 136.955 224.338 136.999 224.112 136.999H88.0108C87.7846 136.999 87.5605 136.955 87.3515 136.868C87.1425 136.782 86.9526 136.655 86.7926 136.495C86.6326 136.335 86.5057 136.145 86.4191 135.936C86.3326 135.727 86.288 135.503 86.288 135.277V131.831C86.288 131.605 86.3326 131.381 86.4192 131.172C86.5057 130.963 86.6326 130.773 86.7926 130.613C86.9526 130.453 87.1425 130.326 87.3515 130.239C87.5605 130.153 87.7846 130.108 88.0108 130.108H224.112" fill="#E6E6E6"/>
<path d="M223.112 146.108C223.569 146.108 224.007 146.29 224.33 146.613C224.653 146.936 224.835 147.374 224.835 147.831V151.277C224.835 151.734 224.653 152.172 224.33 152.495C224.007 152.818 223.569 152.999 223.112 152.999H87.0108C86.5539 152.999 86.1157 152.818 85.7926 152.495C85.4695 152.172 85.288 151.734 85.288 151.277V147.831C85.288 147.374 85.4695 146.936 85.7926 146.613C86.1157 146.29 86.5539 146.108 87.0108 146.108H223.112" fill="#E6E6E6"/>
<path d="M224.112 112.108C224.569 112.108 225.007 112.316 225.33 112.686C225.653 113.056 225.835 113.558 225.835 114.081V118.027C225.835 118.55 225.653 119.052 225.33 119.422C225.007 119.792 224.569 119.999 224.112 119.999H88.0108C87.7846 119.999 87.5605 119.948 87.3515 119.849C87.1425 119.75 86.9526 119.605 86.7926 119.422C86.6326 119.238 86.5057 119.021 86.4192 118.782C86.3326 118.542 86.288 118.286 86.288 118.027V114.081C86.288 113.822 86.3326 113.565 86.4192 113.326C86.5057 113.087 86.6326 112.869 86.7926 112.686C86.9526 112.503 87.1425 112.358 87.3515 112.258C87.5605 112.159 87.7846 112.108 88.0108 112.108H224.112" fill="#E6E6E6"/>
<path d="M224.112 80.1082C224.569 80.1082 225.007 80.3161 225.33 80.6861C225.653 81.0561 225.835 81.5578 225.835 82.0811V86.0266C225.835 86.5499 225.653 87.0516 225.33 87.4216C225.007 87.7916 224.569 87.9995 224.112 87.9995H88.0108C87.7846 87.9995 87.5605 87.9484 87.3515 87.8493C87.1425 87.7501 86.9526 87.6048 86.7926 87.4216C86.6326 87.2384 86.5057 87.021 86.4192 86.7816C86.3326 86.5423 86.288 86.2857 86.288 86.0266V82.0811C86.288 81.822 86.3326 81.5654 86.4192 81.3261C86.5057 81.0867 86.6326 80.8693 86.7926 80.6861C86.9526 80.5029 87.1425 80.3576 87.3515 80.2584C87.5605 80.1593 87.7846 80.1082 88.0108 80.1082H224.112" fill="#E6E6E6"/>
<path d="M187.321 34.2745L124.907 34.4947L107.98 17.8635L158.563 16.8496L200.973 17.5354L187.321 34.2745Z" fill="#2F2E41"/>
<path d="M525.563 511.69L503 443.466C503 443.466 527.818 468.333 527.818 488.736L523.364 441.554C523.364 441.554 536.091 458.769 534.818 484.911C533.545 511.053 525.563 511.69 525.563 511.69Z" fill="#E6E6E6"/>
<path d="M41.0209 449.569L19 382.985C19 382.985 43.2216 407.254 43.2216 427.167L38.8741 381.119C38.8741 381.119 51.2954 397.92 50.0533 423.433C48.8111 448.947 41.0209 449.569 41.0209 449.569Z" fill="#E6E6E6"/>
<path d="M384.726 480.295C384.763 524.095 298.061 510.622 191.916 510.714C85.772 510.806 0.380729 524.427 0.342999 480.627C0.305269 436.827 86.9762 427.226 193.121 427.134C299.265 427.042 384.688 436.495 384.726 480.295Z" fill="#E6E6E6"/>
<path d="M310.336 421.143H296.459L289.855 367.513H310.336V421.143Z" fill="#A0616A"/>
<path d="M285.006 417.17H313.31V434.054H269.697V432.509C269.697 428.441 271.31 424.54 274.181 421.663C277.052 418.786 280.946 417.17 285.006 417.17V417.17Z" fill="#2F2E41"/>
<path d="M412.336 500.297H398.459L391.855 446.667H412.336V500.297Z" fill="#A0616A"/>
<path d="M387.006 496.325H415.31V513.208H371.697V511.663C371.697 507.595 373.31 503.694 376.181 500.817C379.052 497.941 382.946 496.325 387.006 496.325V496.325Z" fill="#2F2E41"/>
<path d="M476.345 340.973C477.304 339.808 477.997 338.445 478.374 336.982C478.751 335.519 478.804 333.991 478.528 332.505C478.251 331.02 477.654 329.613 476.776 328.384C475.899 327.155 474.763 326.134 473.449 325.392L441.219 193.843L420.611 202.727L458.947 329.923C457.849 332.218 457.63 334.836 458.331 337.281C459.031 339.726 460.603 341.829 462.747 343.191C464.892 344.553 467.461 345.08 469.967 344.671C472.473 344.262 474.742 342.947 476.345 340.973V340.973Z" fill="#A0616A"/>
<path d="M451.208 75.1099C450.057 73.9051 448.658 72.9677 447.107 72.3636C445.556 71.7595 443.891 71.5035 442.231 71.6136C440.571 71.7237 438.955 72.1972 437.497 73.0008C436.039 73.8044 434.774 74.9185 433.792 76.2647L383.907 82.0029L391.496 101.282L436.863 92.7745C439.23 94.2771 442.064 94.8577 444.829 94.4064C447.594 93.9552 450.098 92.5033 451.866 90.3259C453.634 88.1485 454.544 85.3969 454.423 82.5925C454.301 79.7881 453.157 77.1258 451.208 75.1099V75.1099Z" fill="#A0616A"/>
<path d="M369 327.331L390.768 491.024L417.861 485.435C417.861 485.435 413.877 366.221 427.424 351.85C440.971 337.478 410 312.302 410 312.302L369 327.331Z" fill="#2F2E41"/>
<path d="M378 282.243L368 297.272C368 297.272 291 265.211 291 316.309C291 367.408 286.594 402.086 285 404.481C283.406 406.876 303.438 413.092 313 411.495C313 411.495 324.797 329.116 324 324.325C324 324.325 399.534 361.431 413.877 358.237C428.221 355.043 431.609 343.738 434 337.35C436.391 330.963 433 280.239 433 280.239L385.19 265.62L378 282.243Z" fill="#2F2E41"/>
<path d="M379.349 192.007L376.499 188.58C376.499 188.58 344.575 116.611 357.117 97.1913C369.658 77.7713 424.384 74.9154 426.094 76.0577C427.805 77.2001 422.01 92.0316 426 98.8858C426 98.8858 383.606 108.095 380.756 109.237C377.905 110.38 402.722 152.595 402.722 152.595L399.871 178.298L379.349 192.007Z" fill="#6C63FF"/>
<path d="M435.216 156.594C435.216 156.594 405.572 160.021 404.432 160.021C403.292 160.021 402.722 152.596 402.722 152.596L376.499 188.58C376.499 188.58 363.58 292.974 367 291.261C370.42 289.547 433.505 299.388 434.075 294.819C434.645 290.249 433.505 267.402 435.216 266.26C436.926 265.117 464.859 194.291 464.859 194.291C464.859 194.291 462.008 179.441 452.317 174.3C442.626 169.16 435.216 156.594 435.216 156.594Z" fill="#6C63FF"/>
<path d="M455.738 184.581L464.859 194.291C464.859 194.291 478.411 305.869 471 309.296C463.589 312.723 449 312.302 449 312.302L434.645 259.406L455.738 184.581Z" fill="#6C63FF"/>
<path d="M406.73 149.528C421.221 149.528 432.968 137.757 432.968 123.238C432.968 108.718 421.221 96.9477 406.73 96.9477C392.238 96.9477 380.491 108.718 380.491 123.238C380.491 137.757 392.238 149.528 406.73 149.528Z" fill="#A0616A"/>
<path d="M400.573 127.34C400.218 121.885 393.35 121.698 387.894 121.646C382.438 121.595 375.916 121.79 372.828 117.282C370.788 114.304 371.178 110.168 372.863 106.975C374.549 103.781 377.321 101.325 380.049 98.9616C387.09 92.8608 394.347 86.8085 402.801 82.9037C411.255 78.9988 421.161 77.421 429.929 80.5556C440.699 84.4061 455.258 104.228 456.515 115.616C457.772 127.004 453.23 138.613 445.573 147.123C437.916 155.633 420.391 152.199 409.363 155.227C416.067 145.719 411.648 128.442 400.907 124.002L400.573 127.34Z" fill="#2F2E41"/>
<path d="M204.5 284.554C219.688 284.554 232 271.77 232 255.999C232 240.228 219.688 227.443 204.5 227.443C189.312 227.443 177 240.228 177 255.999C177 271.77 189.312 284.554 204.5 284.554Z" fill="#2F2E41"/>
<path d="M216 323.458L216.232 330.468L241.218 329.638L240.986 322.629L216 323.458Z" fill="#E6E6E6"/>
<path d="M166.808 218.81C160.667 218.359 154.752 216.615 149.78 213.791C144.809 210.966 140.993 207.181 138.795 202.894L76.965 81.9089C74.9169 77.9013 73.9886 73.6665 74.2373 69.4648C74.486 65.2632 75.9064 61.1834 78.4111 57.4763C80.9159 53.7693 84.4521 50.5132 88.8025 47.9082C93.1528 45.3033 98.2253 43.4046 103.708 42.3287C109.191 41.2528 114.969 41.0226 120.686 41.6521C126.402 42.2817 131.938 43.7577 136.952 45.9894C141.966 48.2212 146.352 51.1616 149.841 54.6298C153.331 58.098 155.849 62.0208 157.242 66.157L199.284 191.025C200.488 194.6 200.545 198.292 199.45 201.807C198.356 205.321 196.141 208.559 192.982 211.262C189.824 213.964 185.811 216.054 181.265 217.365C176.719 218.676 171.768 219.171 166.808 218.81L166.808 218.81Z" fill="#2F2E41"/>
<rect x="63.288" y="306.108" width="7" height="26" fill="#E6E6E6"/>
<rect x="236" y="301" width="7" height="26" fill="#E6E6E6"/>
<rect x="66.288" y="324.108" width="25" height="8" fill="#E6E6E6"/>
<g clip-path="url(#clip0)">
<path d="M84.5198 37.1039L84.2724 30.1082L58.2886 31.027L58.536 38.0227L84.5198 37.1039Z" fill="#E6E6E6"/>
<path d="M66.5535 58.7523L65.6701 33.7679L58.3947 34.0252L59.2781 59.0095L66.5535 58.7523Z" fill="#E6E6E6"/>
</g>
<g clip-path="url(#clip1)">
<path d="M223.696 35.9962L223.927 29L249.913 29.8612L249.681 36.8574L223.696 35.9962Z" fill="#E6E6E6"/>
<path d="M241.71 57.6047L242.538 32.6184L249.814 32.8596L248.986 57.8458L241.71 57.6047Z" fill="#E6E6E6"/>
</g>
<defs>
<clipPath id="clip0">
<rect width="28" height="26" fill="white" transform="translate(84.2724 30.1082) rotate(87.9749)"/>
</clipPath>
<clipPath id="clip1">
<rect width="28" height="26" fill="white" transform="matrix(-0.033123 0.999451 0.999451 0.033123 223.927 29)"/>
</clipPath>
</defs>
</svg>
