<svg width="783" height="635" viewBox="0 0 783 635" fill="none" xmlns="http://www.w3.org/2000/svg">
<g clip-path="url(#clip0)">
<path d="M344.844 157.437C345.301 157.437 345.739 157.619 346.062 157.942C346.385 158.265 346.567 158.703 346.567 159.16V162.606C346.567 163.063 346.385 163.501 346.062 163.824C345.739 164.147 345.301 164.328 344.844 164.328H208.743C208.286 164.328 207.848 164.147 207.525 163.824C207.202 163.501 207.02 163.063 207.02 162.606V159.16C207.02 158.703 207.202 158.265 207.525 157.942C207.848 157.619 208.286 157.437 208.743 157.437H344.844" fill="#E6E6E6"/>
<path d="M6.81264 13.6274C10.5755 13.6274 13.626 10.5769 13.626 6.81404C13.626 3.05114 10.5755 0.000701904 6.81264 0.000701904C3.04973 0.000701904 -0.000701904 3.05114 -0.000701904 6.81404C-0.000701904 10.5769 3.04973 13.6274 6.81264 13.6274Z" fill="#E6E6E6"/>
<path d="M41.3017 13.6274C45.0646 13.6274 48.115 10.5769 48.115 6.81404C48.115 3.05114 45.0646 0.000701904 41.3017 0.000701904C37.5388 0.000701904 34.4883 3.05114 34.4883 6.81404C34.4883 10.5769 37.5388 13.6274 41.3017 13.6274Z" fill="#E6E6E6"/>
<path d="M75.7907 13.6274C79.5536 13.6274 82.6041 10.5769 82.6041 6.81404C82.6041 3.05114 79.5536 0.000701904 75.7907 0.000701904C72.0278 0.000701904 68.9774 3.05114 68.9774 6.81404C68.9774 10.5769 72.0278 13.6274 75.7907 13.6274Z" fill="#E6E6E6"/>
<path d="M110.28 13.6274C114.043 13.6274 117.093 10.5769 117.093 6.81404C117.093 3.05114 114.043 0.000701904 110.28 0.000701904C106.517 0.000701904 103.466 3.05114 103.466 6.81404C103.466 10.5769 106.517 13.6274 110.28 13.6274Z" fill="#E6E6E6"/>
<path d="M144.769 13.6274C148.532 13.6274 151.582 10.5769 151.582 6.81404C151.582 3.05114 148.532 0.000701904 144.769 0.000701904C141.006 0.000701904 137.955 3.05114 137.955 6.81404C137.955 10.5769 141.006 13.6274 144.769 13.6274Z" fill="#E6E6E6"/>
<path d="M179.258 13.6274C183.021 13.6274 186.071 10.5769 186.071 6.81404C186.071 3.05114 183.021 0.000701904 179.258 0.000701904C175.495 0.000701904 172.445 3.05114 172.445 6.81404C172.445 10.5769 175.495 13.6274 179.258 13.6274Z" fill="#E6E6E6"/>
<path d="M213.747 13.6274C217.51 13.6274 220.56 10.5769 220.56 6.81404C220.56 3.05114 217.51 0.000701904 213.747 0.000701904C209.984 0.000701904 206.934 3.05114 206.934 6.81404C206.934 10.5769 209.984 13.6274 213.747 13.6274Z" fill="#E6E6E6"/>
<path d="M248.236 13.6274C251.999 13.6274 255.049 10.5769 255.049 6.81404C255.049 3.05114 251.999 0.000701904 248.236 0.000701904C244.473 0.000701904 241.423 3.05114 241.423 6.81404C241.423 10.5769 244.473 13.6274 248.236 13.6274Z" fill="#E6E6E6"/>
<path d="M282.725 13.6274C286.488 13.6274 289.538 10.5769 289.538 6.81404C289.538 3.05114 286.488 0.000701904 282.725 0.000701904C278.962 0.000701904 275.912 3.05114 275.912 6.81404C275.912 10.5769 278.962 13.6274 282.725 13.6274Z" fill="#E6E6E6"/>
<path d="M317.214 13.6274C320.977 13.6274 324.027 10.5769 324.027 6.81404C324.027 3.05114 320.977 0.000701904 317.214 0.000701904C313.451 0.000701904 310.401 3.05114 310.401 6.81404C310.401 10.5769 313.451 13.6274 317.214 13.6274Z" fill="#E6E6E6"/>
<path d="M6.81264 48.5493C10.5755 48.5493 13.626 45.4989 13.626 41.736C13.626 37.9731 10.5755 34.9226 6.81264 34.9226C3.04973 34.9226 -0.000701904 37.9731 -0.000701904 41.736C-0.000701904 45.4989 3.04973 48.5493 6.81264 48.5493Z" fill="#E6E6E6"/>
<path d="M41.3017 48.5493C45.0646 48.5493 48.115 45.4989 48.115 41.736C48.115 37.9731 45.0646 34.9226 41.3017 34.9226C37.5388 34.9226 34.4883 37.9731 34.4883 41.736C34.4883 45.4989 37.5388 48.5493 41.3017 48.5493Z" fill="#E6E6E6"/>
<path d="M75.7907 48.5493C79.5536 48.5493 82.6041 45.4989 82.6041 41.736C82.6041 37.9731 79.5536 34.9226 75.7907 34.9226C72.0278 34.9226 68.9774 37.9731 68.9774 41.736C68.9774 45.4989 72.0278 48.5493 75.7907 48.5493Z" fill="#E6E6E6"/>
<path d="M110.28 48.5493C114.043 48.5493 117.093 45.4989 117.093 41.736C117.093 37.9731 114.043 34.9226 110.28 34.9226C106.517 34.9226 103.466 37.9731 103.466 41.736C103.466 45.4989 106.517 48.5493 110.28 48.5493Z" fill="#6C63FF"/>
<path d="M144.769 48.5493C148.532 48.5493 151.582 45.4989 151.582 41.736C151.582 37.9731 148.532 34.9226 144.769 34.9226C141.006 34.9226 137.955 37.9731 137.955 41.736C137.955 45.4989 141.006 48.5493 144.769 48.5493Z" fill="#E6E6E6"/>
<path d="M179.258 48.5493C183.021 48.5493 186.071 45.4989 186.071 41.736C186.071 37.9731 183.021 34.9226 179.258 34.9226C175.495 34.9226 172.445 37.9731 172.445 41.736C172.445 45.4989 175.495 48.5493 179.258 48.5493Z" fill="#E6E6E6"/>
<path d="M213.747 48.5493C217.51 48.5493 220.56 45.4989 220.56 41.736C220.56 37.9731 217.51 34.9226 213.747 34.9226C209.984 34.9226 206.934 37.9731 206.934 41.736C206.934 45.4989 209.984 48.5493 213.747 48.5493Z" fill="#E6E6E6"/>
<path d="M248.236 48.5493C251.999 48.5493 255.049 45.4989 255.049 41.736C255.049 37.9731 251.999 34.9226 248.236 34.9226C244.473 34.9226 241.423 37.9731 241.423 41.736C241.423 45.4989 244.473 48.5493 248.236 48.5493Z" fill="#E6E6E6"/>
<path d="M282.725 48.5493C286.488 48.5493 289.538 45.4989 289.538 41.736C289.538 37.9731 286.488 34.9226 282.725 34.9226C278.962 34.9226 275.912 37.9731 275.912 41.736C275.912 45.4989 278.962 48.5493 282.725 48.5493Z" fill="#E6E6E6"/>
<path d="M317.214 48.5493C320.977 48.5493 324.027 45.4989 324.027 41.736C324.027 37.9731 320.977 34.9226 317.214 34.9226C313.451 34.9226 310.401 37.9731 310.401 41.736C310.401 45.4989 313.451 48.5493 317.214 48.5493Z" fill="#E6E6E6"/>
<path d="M6.81264 83.4713C10.5755 83.4713 13.626 80.4209 13.626 76.658C13.626 72.895 10.5755 69.8446 6.81264 69.8446C3.04973 69.8446 -0.000701904 72.895 -0.000701904 76.658C-0.000701904 80.4209 3.04973 83.4713 6.81264 83.4713Z" fill="#E6E6E6"/>
<path d="M41.3017 83.4713C45.0646 83.4713 48.115 80.4209 48.115 76.658C48.115 72.895 45.0646 69.8446 41.3017 69.8446C37.5388 69.8446 34.4883 72.895 34.4883 76.658C34.4883 80.4209 37.5388 83.4713 41.3017 83.4713Z" fill="#E6E6E6"/>
<path d="M75.7907 83.4713C79.5536 83.4713 82.6041 80.4209 82.6041 76.658C82.6041 72.895 79.5536 69.8446 75.7907 69.8446C72.0278 69.8446 68.9774 72.895 68.9774 76.658C68.9774 80.4209 72.0278 83.4713 75.7907 83.4713Z" fill="#E6E6E6"/>
<path d="M110.28 83.4713C114.043 83.4713 117.093 80.4209 117.093 76.658C117.093 72.895 114.043 69.8446 110.28 69.8446C106.517 69.8446 103.466 72.895 103.466 76.658C103.466 80.4209 106.517 83.4713 110.28 83.4713Z" fill="#E6E6E6"/>
<path d="M144.769 83.4713C148.532 83.4713 151.582 80.4209 151.582 76.658C151.582 72.895 148.532 69.8446 144.769 69.8446C141.006 69.8446 137.955 72.895 137.955 76.658C137.955 80.4209 141.006 83.4713 144.769 83.4713Z" fill="#E6E6E6"/>
<path d="M179.258 83.4713C183.021 83.4713 186.071 80.4209 186.071 76.658C186.071 72.895 183.021 69.8446 179.258 69.8446C175.495 69.8446 172.445 72.895 172.445 76.658C172.445 80.4209 175.495 83.4713 179.258 83.4713Z" fill="#E6E6E6"/>
<path d="M213.747 83.4713C217.51 83.4713 220.56 80.4209 220.56 76.658C220.56 72.895 217.51 69.8446 213.747 69.8446C209.984 69.8446 206.934 72.895 206.934 76.658C206.934 80.4209 209.984 83.4713 213.747 83.4713Z" fill="#E6E6E6"/>
<path d="M248.236 83.4713C251.999 83.4713 255.049 80.4209 255.049 76.658C255.049 72.895 251.999 69.8446 248.236 69.8446C244.473 69.8446 241.423 72.895 241.423 76.658C241.423 80.4209 244.473 83.4713 248.236 83.4713Z" fill="#E6E6E6"/>
<path d="M282.725 83.4713C286.488 83.4713 289.538 80.4209 289.538 76.658C289.538 72.895 286.488 69.8446 282.725 69.8446C278.962 69.8446 275.912 72.895 275.912 76.658C275.912 80.4209 278.962 83.4713 282.725 83.4713Z" fill="#E6E6E6"/>
<path d="M317.214 83.4713C320.977 83.4713 324.027 80.4209 324.027 76.658C324.027 72.895 320.977 69.8446 317.214 69.8446C313.451 69.8446 310.401 72.895 310.401 76.658C310.401 80.4209 313.451 83.4713 317.214 83.4713Z" fill="#E6E6E6"/>
<path d="M6.81264 118.393C10.5755 118.393 13.626 115.343 13.626 111.58C13.626 107.817 10.5755 104.767 6.81264 104.767C3.04973 104.767 -0.000701904 107.817 -0.000701904 111.58C-0.000701904 115.343 3.04973 118.393 6.81264 118.393Z" fill="#E6E6E6"/>
<path d="M41.3017 118.393C45.0646 118.393 48.115 115.343 48.115 111.58C48.115 107.817 45.0646 104.767 41.3017 104.767C37.5388 104.767 34.4883 107.817 34.4883 111.58C34.4883 115.343 37.5388 118.393 41.3017 118.393Z" fill="#E6E6E6"/>
<path d="M75.7907 118.393C79.5536 118.393 82.6041 115.343 82.6041 111.58C82.6041 107.817 79.5536 104.767 75.7907 104.767C72.0278 104.767 68.9774 107.817 68.9774 111.58C68.9774 115.343 72.0278 118.393 75.7907 118.393Z" fill="#E6E6E6"/>
<path d="M110.28 118.393C114.043 118.393 117.093 115.343 117.093 111.58C117.093 107.817 114.043 104.767 110.28 104.767C106.517 104.767 103.466 107.817 103.466 111.58C103.466 115.343 106.517 118.393 110.28 118.393Z" fill="#E6E6E6"/>
<path d="M144.769 118.393C148.532 118.393 151.582 115.343 151.582 111.58C151.582 107.817 148.532 104.767 144.769 104.767C141.006 104.767 137.955 107.817 137.955 111.58C137.955 115.343 141.006 118.393 144.769 118.393Z" fill="#E6E6E6"/>
<path d="M179.258 118.393C183.021 118.393 186.071 115.343 186.071 111.58C186.071 107.817 183.021 104.767 179.258 104.767C175.495 104.767 172.445 107.817 172.445 111.58C172.445 115.343 175.495 118.393 179.258 118.393Z" fill="#E6E6E6"/>
<path d="M213.747 118.393C217.51 118.393 220.56 115.343 220.56 111.58C220.56 107.817 217.51 104.767 213.747 104.767C209.984 104.767 206.934 107.817 206.934 111.58C206.934 115.343 209.984 118.393 213.747 118.393Z" fill="#E6E6E6"/>
<path d="M248.236 118.393C251.999 118.393 255.049 115.343 255.049 111.58C255.049 107.817 251.999 104.767 248.236 104.767C244.473 104.767 241.423 107.817 241.423 111.58C241.423 115.343 244.473 118.393 248.236 118.393Z" fill="#E6E6E6"/>
<path d="M282.725 118.393C286.488 118.393 289.538 115.343 289.538 111.58C289.538 107.817 286.488 104.767 282.725 104.767C278.962 104.767 275.912 107.817 275.912 111.58C275.912 115.343 278.962 118.393 282.725 118.393Z" fill="#E6E6E6"/>
<path d="M317.214 118.393C320.977 118.393 324.027 115.343 324.027 111.58C324.027 107.817 320.977 104.767 317.214 104.767C313.451 104.767 310.401 107.817 310.401 111.58C310.401 115.343 313.451 118.393 317.214 118.393Z" fill="#E6E6E6"/>
<path d="M6.81264 153.315C10.5755 153.315 13.626 150.265 13.626 146.502C13.626 142.739 10.5755 139.688 6.81264 139.688C3.04973 139.688 -0.000701904 142.739 -0.000701904 146.502C-0.000701904 150.265 3.04973 153.315 6.81264 153.315Z" fill="#E6E6E6"/>
<path d="M41.3017 153.315C45.0646 153.315 48.115 150.265 48.115 146.502C48.115 142.739 45.0646 139.688 41.3017 139.688C37.5388 139.688 34.4883 142.739 34.4883 146.502C34.4883 150.265 37.5388 153.315 41.3017 153.315Z" fill="#6C63FF"/>
<path d="M75.7907 153.315C79.5536 153.315 82.6041 150.265 82.6041 146.502C82.6041 142.739 79.5536 139.688 75.7907 139.688C72.0278 139.688 68.9774 142.739 68.9774 146.502C68.9774 150.265 72.0278 153.315 75.7907 153.315Z" fill="#E6E6E6"/>
<path d="M110.28 153.315C114.043 153.315 117.093 150.265 117.093 146.502C117.093 142.739 114.043 139.688 110.28 139.688C106.517 139.688 103.466 142.739 103.466 146.502C103.466 150.265 106.517 153.315 110.28 153.315Z" fill="#E6E6E6"/>
<path d="M144.769 153.315C148.532 153.315 151.582 150.265 151.582 146.502C151.582 142.739 148.532 139.688 144.769 139.688C141.006 139.688 137.955 142.739 137.955 146.502C137.955 150.265 141.006 153.315 144.769 153.315Z" fill="#E6E6E6"/>
<path d="M179.258 153.315C183.021 153.315 186.071 150.265 186.071 146.502C186.071 142.739 183.021 139.688 179.258 139.688C175.495 139.688 172.445 142.739 172.445 146.502C172.445 150.265 175.495 153.315 179.258 153.315Z" fill="#E6E6E6"/>
<path d="M213.747 153.315C217.51 153.315 220.56 150.265 220.56 146.502C220.56 142.739 217.51 139.688 213.747 139.688C209.984 139.688 206.934 142.739 206.934 146.502C206.934 150.265 209.984 153.315 213.747 153.315Z" fill="#E6E6E6"/>
<path d="M248.236 153.315C251.999 153.315 255.049 150.265 255.049 146.502C255.049 142.739 251.999 139.688 248.236 139.688C244.473 139.688 241.423 142.739 241.423 146.502C241.423 150.265 244.473 153.315 248.236 153.315Z" fill="#E6E6E6"/>
<path d="M282.725 153.315C286.488 153.315 289.538 150.265 289.538 146.502C289.538 142.739 286.488 139.688 282.725 139.688C278.962 139.688 275.912 142.739 275.912 146.502C275.912 150.265 278.962 153.315 282.725 153.315Z" fill="#E6E6E6"/>
<path d="M317.214 153.315C320.977 153.315 324.027 150.265 324.027 146.502C324.027 142.739 320.977 139.688 317.214 139.688C313.451 139.688 310.401 142.739 310.401 146.502C310.401 150.265 313.451 153.315 317.214 153.315Z" fill="#E6E6E6"/>
<path d="M6.81264 188.237C10.5755 188.237 13.626 185.187 13.626 181.424C13.626 177.661 10.5755 174.61 6.81264 174.61C3.04973 174.61 -0.000701904 177.661 -0.000701904 181.424C-0.000701904 185.187 3.04973 188.237 6.81264 188.237Z" fill="#E6E6E6"/>
<path d="M41.3017 188.237C45.0646 188.237 48.115 185.187 48.115 181.424C48.115 177.661 45.0646 174.61 41.3017 174.61C37.5388 174.61 34.4883 177.661 34.4883 181.424C34.4883 185.187 37.5388 188.237 41.3017 188.237Z" fill="#E6E6E6"/>
<path d="M75.7907 188.237C79.5536 188.237 82.6041 185.187 82.6041 181.424C82.6041 177.661 79.5536 174.61 75.7907 174.61C72.0278 174.61 68.9774 177.661 68.9774 181.424C68.9774 185.187 72.0278 188.237 75.7907 188.237Z" fill="#E6E6E6"/>
<path d="M110.28 188.237C114.043 188.237 117.093 185.187 117.093 181.424C117.093 177.661 114.043 174.61 110.28 174.61C106.517 174.61 103.466 177.661 103.466 181.424C103.466 185.187 106.517 188.237 110.28 188.237Z" fill="#E6E6E6"/>
<path d="M144.769 188.237C148.532 188.237 151.582 185.187 151.582 181.424C151.582 177.661 148.532 174.61 144.769 174.61C141.006 174.61 137.955 177.661 137.955 181.424C137.955 185.187 141.006 188.237 144.769 188.237Z" fill="#E6E6E6"/>
<path d="M179.258 188.237C183.021 188.237 186.071 185.187 186.071 181.424C186.071 177.661 183.021 174.61 179.258 174.61C175.495 174.61 172.445 177.661 172.445 181.424C172.445 185.187 175.495 188.237 179.258 188.237Z" fill="#E6E6E6"/>
<path d="M213.747 188.237C217.51 188.237 220.56 185.187 220.56 181.424C220.56 177.661 217.51 174.61 213.747 174.61C209.984 174.61 206.934 177.661 206.934 181.424C206.934 185.187 209.984 188.237 213.747 188.237Z" fill="#E6E6E6"/>
<path d="M248.236 188.237C251.999 188.237 255.049 185.187 255.049 181.424C255.049 177.661 251.999 174.61 248.236 174.61C244.473 174.61 241.423 177.661 241.423 181.424C241.423 185.187 244.473 188.237 248.236 188.237Z" fill="#E6E6E6"/>
<path d="M282.725 188.237C286.488 188.237 289.538 185.187 289.538 181.424C289.538 177.661 286.488 174.61 282.725 174.61C278.962 174.61 275.912 177.661 275.912 181.424C275.912 185.187 278.962 188.237 282.725 188.237Z" fill="#E6E6E6"/>
<path d="M317.214 188.237C320.977 188.237 324.027 185.187 324.027 181.424C324.027 177.661 320.977 174.61 317.214 174.61C313.451 174.61 310.401 177.661 310.401 181.424C310.401 185.187 313.451 188.237 317.214 188.237Z" fill="#E6E6E6"/>
<path d="M6.81264 223.159C10.5755 223.159 13.626 220.109 13.626 216.346C13.626 212.583 10.5755 209.532 6.81264 209.532C3.04973 209.532 -0.000701904 212.583 -0.000701904 216.346C-0.000701904 220.109 3.04973 223.159 6.81264 223.159Z" fill="#E6E6E6"/>
<path d="M41.3017 223.159C45.0646 223.159 48.115 220.109 48.115 216.346C48.115 212.583 45.0646 209.532 41.3017 209.532C37.5388 209.532 34.4883 212.583 34.4883 216.346C34.4883 220.109 37.5388 223.159 41.3017 223.159Z" fill="#E6E6E6"/>
<path d="M75.7907 223.159C79.5536 223.159 82.6041 220.109 82.6041 216.346C82.6041 212.583 79.5536 209.532 75.7907 209.532C72.0278 209.532 68.9774 212.583 68.9774 216.346C68.9774 220.109 72.0278 223.159 75.7907 223.159Z" fill="#6C63FF"/>
<path d="M110.28 223.159C114.043 223.159 117.093 220.109 117.093 216.346C117.093 212.583 114.043 209.532 110.28 209.532C106.517 209.532 103.466 212.583 103.466 216.346C103.466 220.109 106.517 223.159 110.28 223.159Z" fill="#E6E6E6"/>
<path d="M144.769 223.159C148.532 223.159 151.582 220.109 151.582 216.346C151.582 212.583 148.532 209.532 144.769 209.532C141.006 209.532 137.955 212.583 137.955 216.346C137.955 220.109 141.006 223.159 144.769 223.159Z" fill="#E6E6E6"/>
<path d="M179.258 223.159C183.021 223.159 186.071 220.109 186.071 216.346C186.071 212.583 183.021 209.532 179.258 209.532C175.495 209.532 172.445 212.583 172.445 216.346C172.445 220.109 175.495 223.159 179.258 223.159Z" fill="#E6E6E6"/>
<path d="M213.747 223.159C217.51 223.159 220.56 220.109 220.56 216.346C220.56 212.583 217.51 209.532 213.747 209.532C209.984 209.532 206.934 212.583 206.934 216.346C206.934 220.109 209.984 223.159 213.747 223.159Z" fill="#E6E6E6"/>
<path d="M248.236 223.159C251.999 223.159 255.049 220.109 255.049 216.346C255.049 212.583 251.999 209.532 248.236 209.532C244.473 209.532 241.423 212.583 241.423 216.346C241.423 220.109 244.473 223.159 248.236 223.159Z" fill="#E6E6E6"/>
<path d="M282.725 223.159C286.488 223.159 289.538 220.109 289.538 216.346C289.538 212.583 286.488 209.532 282.725 209.532C278.962 209.532 275.912 212.583 275.912 216.346C275.912 220.109 278.962 223.159 282.725 223.159Z" fill="#E6E6E6"/>
<path d="M317.214 223.159C320.977 223.159 324.027 220.109 324.027 216.346C324.027 212.583 320.977 209.532 317.214 209.532C313.451 209.532 310.401 212.583 310.401 216.346C310.401 220.109 313.451 223.159 317.214 223.159Z" fill="#E6E6E6"/>
<path d="M6.81264 258.081C10.5755 258.081 13.626 255.031 13.626 251.268C13.626 247.505 10.5755 244.454 6.81264 244.454C3.04973 244.454 -0.000701904 247.505 -0.000701904 251.268C-0.000701904 255.031 3.04973 258.081 6.81264 258.081Z" fill="#E6E6E6"/>
<path d="M41.3017 258.081C45.0646 258.081 48.115 255.031 48.115 251.268C48.115 247.505 45.0646 244.454 41.3017 244.454C37.5388 244.454 34.4883 247.505 34.4883 251.268C34.4883 255.031 37.5388 258.081 41.3017 258.081Z" fill="#E6E6E6"/>
<path d="M75.7907 258.081C79.5536 258.081 82.6041 255.031 82.6041 251.268C82.6041 247.505 79.5536 244.454 75.7907 244.454C72.0278 244.454 68.9774 247.505 68.9774 251.268C68.9774 255.031 72.0278 258.081 75.7907 258.081Z" fill="#E6E6E6"/>
<path d="M110.28 258.081C114.043 258.081 117.093 255.031 117.093 251.268C117.093 247.505 114.043 244.454 110.28 244.454C106.517 244.454 103.466 247.505 103.466 251.268C103.466 255.031 106.517 258.081 110.28 258.081Z" fill="#E6E6E6"/>
<path d="M144.769 258.081C148.532 258.081 151.582 255.031 151.582 251.268C151.582 247.505 148.532 244.454 144.769 244.454C141.006 244.454 137.955 247.505 137.955 251.268C137.955 255.031 141.006 258.081 144.769 258.081Z" fill="#E6E6E6"/>
<path d="M179.258 258.081C183.021 258.081 186.071 255.031 186.071 251.268C186.071 247.505 183.021 244.454 179.258 244.454C175.495 244.454 172.445 247.505 172.445 251.268C172.445 255.031 175.495 258.081 179.258 258.081Z" fill="#E6E6E6"/>
<path d="M213.747 258.081C217.51 258.081 220.56 255.031 220.56 251.268C220.56 247.505 217.51 244.454 213.747 244.454C209.984 244.454 206.934 247.505 206.934 251.268C206.934 255.031 209.984 258.081 213.747 258.081Z" fill="#E6E6E6"/>
<path d="M248.236 258.081C251.999 258.081 255.049 255.031 255.049 251.268C255.049 247.505 251.999 244.454 248.236 244.454C244.473 244.454 241.423 247.505 241.423 251.268C241.423 255.031 244.473 258.081 248.236 258.081Z" fill="#E6E6E6"/>
<path d="M282.725 258.081C286.488 258.081 289.538 255.031 289.538 251.268C289.538 247.505 286.488 244.454 282.725 244.454C278.962 244.454 275.912 247.505 275.912 251.268C275.912 255.031 278.962 258.081 282.725 258.081Z" fill="#E6E6E6"/>
<path d="M317.214 258.081C320.977 258.081 324.027 255.031 324.027 251.268C324.027 247.505 320.977 244.454 317.214 244.454C313.451 244.454 310.401 247.505 310.401 251.268C310.401 255.031 313.451 258.081 317.214 258.081Z" fill="#E6E6E6"/>
<path d="M6.81264 293.003C10.5755 293.003 13.626 289.953 13.626 286.19C13.626 282.427 10.5755 279.376 6.81264 279.376C3.04973 279.376 -0.000701904 282.427 -0.000701904 286.19C-0.000701904 289.953 3.04973 293.003 6.81264 293.003Z" fill="#E6E6E6"/>
<path d="M41.3017 293.003C45.0646 293.003 48.115 289.953 48.115 286.19C48.115 282.427 45.0646 279.376 41.3017 279.376C37.5388 279.376 34.4883 282.427 34.4883 286.19C34.4883 289.953 37.5388 293.003 41.3017 293.003Z" fill="#E6E6E6"/>
<path d="M75.7907 293.003C79.5536 293.003 82.6041 289.953 82.6041 286.19C82.6041 282.427 79.5536 279.376 75.7907 279.376C72.0278 279.376 68.9774 282.427 68.9774 286.19C68.9774 289.953 72.0278 293.003 75.7907 293.003Z" fill="#E6E6E6"/>
<path d="M110.28 293.003C114.043 293.003 117.093 289.953 117.093 286.19C117.093 282.427 114.043 279.376 110.28 279.376C106.517 279.376 103.466 282.427 103.466 286.19C103.466 289.953 106.517 293.003 110.28 293.003Z" fill="#E6E6E6"/>
<path d="M144.769 293.003C148.532 293.003 151.582 289.953 151.582 286.19C151.582 282.427 148.532 279.376 144.769 279.376C141.006 279.376 137.955 282.427 137.955 286.19C137.955 289.953 141.006 293.003 144.769 293.003Z" fill="#E6E6E6"/>
<path d="M179.258 293.003C183.021 293.003 186.071 289.953 186.071 286.19C186.071 282.427 183.021 279.376 179.258 279.376C175.495 279.376 172.445 282.427 172.445 286.19C172.445 289.953 175.495 293.003 179.258 293.003Z" fill="#E6E6E6"/>
<path d="M213.747 293.003C217.51 293.003 220.56 289.953 220.56 286.19C220.56 282.427 217.51 279.376 213.747 279.376C209.984 279.376 206.934 282.427 206.934 286.19C206.934 289.953 209.984 293.003 213.747 293.003Z" fill="#E6E6E6"/>
<path d="M248.236 293.003C251.999 293.003 255.049 289.953 255.049 286.19C255.049 282.427 251.999 279.376 248.236 279.376C244.473 279.376 241.423 282.427 241.423 286.19C241.423 289.953 244.473 293.003 248.236 293.003Z" fill="#E6E6E6"/>
<path d="M282.725 293.003C286.488 293.003 289.538 289.953 289.538 286.19C289.538 282.427 286.488 279.376 282.725 279.376C278.962 279.376 275.912 282.427 275.912 286.19C275.912 289.953 278.962 293.003 282.725 293.003Z" fill="#E6E6E6"/>
<path d="M317.214 293.003C320.977 293.003 324.027 289.953 324.027 286.19C324.027 282.427 320.977 279.376 317.214 279.376C313.451 279.376 310.401 282.427 310.401 286.19C310.401 289.953 313.451 293.003 317.214 293.003Z" fill="#E6E6E6"/>
<path d="M6.81264 327.925C10.5755 327.925 13.626 324.874 13.626 321.112C13.626 317.349 10.5755 314.298 6.81264 314.298C3.04973 314.298 -0.000701904 317.349 -0.000701904 321.112C-0.000701904 324.874 3.04973 327.925 6.81264 327.925Z" fill="#E6E6E6"/>
<path d="M41.3017 327.925C45.0646 327.925 48.115 324.874 48.115 321.112C48.115 317.349 45.0646 314.298 41.3017 314.298C37.5388 314.298 34.4883 317.349 34.4883 321.112C34.4883 324.874 37.5388 327.925 41.3017 327.925Z" fill="#E6E6E6"/>
<path d="M75.7907 327.925C79.5536 327.925 82.6041 324.874 82.6041 321.112C82.6041 317.349 79.5536 314.298 75.7907 314.298C72.0278 314.298 68.9774 317.349 68.9774 321.112C68.9774 324.874 72.0278 327.925 75.7907 327.925Z" fill="#E6E6E6"/>
<path d="M110.28 327.925C114.043 327.925 117.093 324.874 117.093 321.112C117.093 317.349 114.043 314.298 110.28 314.298C106.517 314.298 103.466 317.349 103.466 321.112C103.466 324.874 106.517 327.925 110.28 327.925Z" fill="#E6E6E6"/>
<path d="M144.769 327.925C148.532 327.925 151.582 324.874 151.582 321.112C151.582 317.349 148.532 314.298 144.769 314.298C141.006 314.298 137.955 317.349 137.955 321.112C137.955 324.874 141.006 327.925 144.769 327.925Z" fill="#E6E6E6"/>
<path d="M179.258 327.925C183.021 327.925 186.071 324.874 186.071 321.112C186.071 317.349 183.021 314.298 179.258 314.298C175.495 314.298 172.445 317.349 172.445 321.112C172.445 324.874 175.495 327.925 179.258 327.925Z" fill="#E6E6E6"/>
<path d="M213.747 327.925C217.51 327.925 220.56 324.874 220.56 321.112C220.56 317.349 217.51 314.298 213.747 314.298C209.984 314.298 206.934 317.349 206.934 321.112C206.934 324.874 209.984 327.925 213.747 327.925Z" fill="#E6E6E6"/>
<path d="M248.236 327.925C251.999 327.925 255.049 324.874 255.049 321.112C255.049 317.349 251.999 314.298 248.236 314.298C244.473 314.298 241.423 317.349 241.423 321.112C241.423 324.874 244.473 327.925 248.236 327.925Z" fill="#E6E6E6"/>
<path d="M282.725 327.925C286.488 327.925 289.538 324.874 289.538 321.112C289.538 317.349 286.488 314.298 282.725 314.298C278.962 314.298 275.912 317.349 275.912 321.112C275.912 324.874 278.962 327.925 282.725 327.925Z" fill="#E6E6E6"/>
<path d="M317.214 327.925C320.977 327.925 324.027 324.874 324.027 321.112C324.027 317.349 320.977 314.298 317.214 314.298C313.451 314.298 310.401 317.349 310.401 321.112C310.401 324.874 313.451 327.925 317.214 327.925Z" fill="#E6E6E6"/>
<path d="M159 399C159 404.523 163.477 409 169 409H359C364.523 409 369 404.523 369 399V87C369 81.4772 364.523 77 359 77H169C163.477 77 159 81.4772 159 87V399Z" fill="#2F2E41"/>
<path d="M499.348 61.2404C496.323 61.2404 493.367 60.3436 490.852 58.6635C488.338 56.9833 486.378 54.5952 485.221 51.8011C484.063 49.0071 483.76 45.9326 484.35 42.9664C484.94 40.0003 486.397 37.2757 488.535 35.1372C490.674 32.9987 493.398 31.5424 496.365 30.9524C499.331 30.3624 502.405 30.6652 505.199 31.8226C507.993 32.9799 510.381 34.9398 512.062 37.4544C513.742 39.9689 514.639 42.9253 514.639 45.9495C514.634 50.0035 513.021 53.8901 510.155 56.7567C507.288 59.6233 503.402 61.2358 499.348 61.2404ZM499.348 32.1149C496.611 32.1149 493.937 32.9263 491.662 34.4464C489.386 35.9666 487.613 38.1273 486.566 40.6552C485.519 43.1832 485.245 45.9649 485.779 48.6485C486.313 51.3322 487.63 53.7973 489.565 55.7321C491.5 57.6669 493.965 58.9845 496.649 59.5183C499.332 60.0521 502.114 59.7782 504.642 58.7311C507.17 57.6839 509.33 55.9107 510.851 53.6356C512.371 51.3605 513.182 48.6857 513.182 45.9495C513.178 42.2816 511.719 38.7652 509.126 36.1716C506.532 33.578 503.016 32.1191 499.348 32.1149Z" fill="#3F3D56"/>
<path d="M499.348 51.7746C502.565 51.7746 505.173 49.1667 505.173 45.9495C505.173 42.7324 502.565 40.1244 499.348 40.1244C496.131 40.1244 493.523 42.7324 493.523 45.9495C493.523 49.1667 496.131 51.7746 499.348 51.7746Z" fill="#6C63FF"/>
<path d="M50.1797 456.457C53.204 456.463 56.1586 457.365 58.6699 459.05C61.1813 460.735 63.1366 463.127 64.2885 465.923C65.4405 468.719 65.7374 471.794 65.1418 474.759C64.5461 477.724 63.0846 480.446 60.942 482.581C58.7994 484.715 56.072 486.166 53.1048 486.75C50.1375 487.335 47.0636 487.026 44.2718 485.863C41.4799 484.701 39.0956 482.736 37.4202 480.218C35.7449 477.701 34.8537 474.743 34.8595 471.718C34.8719 467.664 36.4918 463.781 39.3639 460.92C42.236 458.059 46.1257 456.454 50.1797 456.457ZM50.1239 485.582C52.8601 485.587 55.5364 484.781 57.8145 483.265C60.0925 481.75 61.8698 479.592 62.9218 477.066C63.9737 474.54 64.253 471.759 63.7244 469.075C63.1957 466.39 61.8828 463.922 59.9517 461.984C58.0206 460.045 55.558 458.723 52.8754 458.184C50.1928 457.645 47.4106 457.914 44.8806 458.956C42.3507 459.998 40.1866 461.767 38.6621 464.039C37.1376 466.312 36.321 468.985 36.3158 471.721C36.3129 475.389 37.7651 478.908 40.3537 481.507C42.9423 484.105 46.456 485.571 50.1239 485.582Z" fill="#3F3D56"/>
<path d="M50.1504 477.573C53.3675 477.573 55.9755 474.965 55.9755 471.748C55.9755 468.53 53.3675 465.922 50.1504 465.922C46.9333 465.922 44.3253 468.53 44.3253 471.748C44.3253 474.965 46.9333 477.573 50.1504 477.573Z" fill="#6C63FF"/>
<path d="M616.828 600.594H606.551L608.386 543.702L635.548 545.17L616.828 600.594Z" fill="#FFB8B8"/>
<path d="M618.231 633.29C615.129 634.706 612.53 623.235 609.914 625.807C602.594 633 595.032 634.566 585.263 631.425L585.036 631.387C584.447 631.198 583.902 630.891 583.435 630.484C582.967 630.078 582.587 629.581 582.318 629.024C582.048 628.466 581.894 627.86 581.866 627.241C581.838 626.623 581.935 626.005 582.153 625.425C582.413 624.731 582.838 624.111 583.39 623.618C583.943 623.124 584.608 622.773 585.327 622.593L593.111 620.647L605.333 599.153L617.809 598.31C620.591 601.857 622.532 605.987 623.487 610.392C624.442 614.796 624.385 619.36 623.322 623.739C622.19 628.361 620.442 632.281 618.231 633.29Z" fill="#2F2E41"/>
<path d="M714.467 593.074L704.91 596.854L685.691 543.275L711.489 534.65L714.467 593.074Z" fill="#FFB8B8"/>
<path d="M727.796 622.962C725.432 625.42 718.797 615.709 717.31 619.063C713.149 628.443 706.693 632.681 696.453 633.354L696.229 633.402C695.611 633.442 694.991 633.357 694.407 633.151C693.823 632.945 693.287 632.623 692.831 632.204C692.376 631.785 692.01 631.277 691.756 630.712C691.502 630.148 691.365 629.537 691.354 628.918C691.341 628.177 691.508 627.444 691.841 626.782C692.173 626.12 692.662 625.548 693.264 625.117L699.787 620.444L703.247 595.962L714.539 590.59C718.43 592.864 721.754 595.991 724.262 599.736C726.77 603.48 728.396 607.745 729.018 612.208C729.665 616.922 729.482 621.21 727.796 622.962Z" fill="#2F2E41"/>
<path d="M683.266 318.361L667.488 322.418C666.294 322.725 665.047 322.761 663.837 322.523C662.627 322.285 661.486 321.779 660.498 321.042C659.509 320.306 658.698 319.357 658.124 318.266C657.55 317.175 657.227 315.97 657.18 314.738C657.136 313.605 657.326 312.476 657.738 311.42C658.15 310.364 658.775 309.404 659.574 308.6C660.373 307.796 661.329 307.165 662.383 306.746C663.436 306.328 664.565 306.131 665.698 306.167L679.596 306.615L706.377 296.864L681.064 277.986L684 251.559L733.332 291.163C734.211 291.869 734.936 292.749 735.46 293.748C735.983 294.748 736.295 295.844 736.375 296.969C736.511 298.861 735.986 300.74 734.89 302.288C733.794 303.836 732.196 304.956 730.367 305.457C718.808 314.89 701.968 317.779 683.266 318.361Z" fill="#FFB8B8"/>
<path d="M647.296 219.259C661.486 219.259 672.989 207.756 672.989 193.566C672.989 179.376 661.486 167.873 647.296 167.873C633.106 167.873 621.603 179.376 621.603 193.566C621.603 207.756 633.106 219.259 647.296 219.259Z" fill="#FFB8B8"/>
<path d="M678.862 228.802L644.36 242.75C645.373 231.843 642.514 220.928 636.285 211.918L664.914 205.311C664.542 214.055 669.27 221.871 678.862 228.802Z" fill="#FFB8B8"/>
<path d="M685.102 288.63C657.289 290.856 642.076 287.163 618.667 273.582L627.476 253.027C627.034 249.932 627.453 246.775 628.689 243.904C629.924 241.032 631.928 238.556 634.479 236.749L643.626 230.27L671.521 222.195L672.772 222.258C676.483 222.443 679.999 223.976 682.661 226.567C685.323 229.159 686.949 232.633 687.234 236.337C693.294 254.448 693.334 271.954 685.102 288.63Z" fill="#6C63FF"/>
<path d="M679.596 331.574L620.135 324.968L615.73 305.881C605.967 291.144 610.229 277.644 621.603 264.772C642.336 278.078 661.581 283.828 689.139 279.454C681.81 297.278 675.042 314.794 679.596 331.574Z" fill="#2F2E41"/>
<path d="M725.843 554.003L678.495 551.434L663.079 428.841L650.599 550.7L594.442 548.13C611.572 468.019 623.473 391.968 620.135 322.031L678.862 327.17C698.765 348.156 708.648 381.655 714.465 421.5C720.283 461.345 724.971 507.536 725.843 554.003Z" fill="#2F2E41"/>
<path d="M675.58 170.176C680.457 170.176 684.411 166.222 684.411 161.345C684.411 156.467 680.457 152.514 675.58 152.514C670.703 152.514 666.749 156.467 666.749 161.345C666.749 166.222 670.703 170.176 675.58 170.176Z" fill="#2F2E41"/>
<path d="M666.48 159.183C666.625 156.942 667.619 154.841 669.259 153.308C670.899 151.774 673.062 150.923 675.307 150.929C675.125 150.906 674.944 150.877 674.758 150.865C672.421 150.715 670.12 151.5 668.36 153.046C666.601 154.593 665.529 156.775 665.379 159.112C665.228 161.449 666.013 163.751 667.559 165.51C669.106 167.269 671.288 168.341 673.625 168.492C673.811 168.504 673.994 168.499 674.178 168.499C671.95 168.217 669.914 167.096 668.484 165.366C667.054 163.635 666.337 161.424 666.48 159.183Z" fill="#2F2E41"/>
<path d="M666.43 162.954C658.554 156.42 635.963 164.724 634.506 169.117C623.855 170.569 615.791 176.783 615.791 187.832V187.832C622.123 190.426 629.325 190.106 637.11 187.832C649.52 197.945 650.37 210.659 642.823 225.261L652.108 225.447L663.617 208.626L664.168 225.688L685.451 225.261V200.81C685.52 192.68 683.649 184.651 679.993 177.39C676.676 170.946 671.529 167.184 666.43 162.954Z" fill="#2F2E41"/>
<path d="M646.611 206.154C648.944 206.154 650.834 203.507 650.834 200.241C650.834 196.976 648.944 194.329 646.611 194.329C644.279 194.329 642.388 196.976 642.388 200.241C642.388 203.507 644.279 206.154 646.611 206.154Z" fill="#FFB8B8"/>
<path d="M614.308 426.99C614.702 426.99 615.079 427.146 615.357 427.424C615.635 427.702 615.792 428.079 615.792 428.473V487.792C615.792 488.185 615.635 488.562 615.357 488.84C615.079 489.119 614.702 489.275 614.308 489.275H571.747C571.354 489.275 570.976 489.119 570.698 488.84C570.42 488.562 570.264 488.185 570.264 487.792V428.473C570.264 428.079 570.42 427.702 570.698 427.424C570.976 427.146 571.354 426.99 571.747 426.99H614.308Z" fill="#6C63FF"/>
<path d="M620.135 404.983L621.572 429.897C621.665 431.5 621.399 433.105 620.794 434.593C620.189 436.081 619.261 437.416 618.076 438.5C616.891 439.585 615.479 440.392 613.944 440.863C612.408 441.334 610.786 441.457 609.197 441.223C602.868 440.293 602.724 434.102 604.276 427.896L610.187 404.249C624.69 352.251 628.605 301.213 627.871 251.437C627.841 249.749 628.154 248.073 628.789 246.509C629.425 244.945 630.372 243.526 631.571 242.338C632.77 241.15 634.198 240.217 635.768 239.596C637.338 238.974 639.017 238.678 640.705 238.723C642.351 238.771 643.972 239.144 645.473 239.82C646.975 240.497 648.328 241.464 649.455 242.665C650.581 243.867 651.459 245.279 652.038 246.821C652.616 248.363 652.884 250.004 652.826 251.65C650.773 310.101 642.248 363.18 620.135 404.983Z" fill="#FFB8B8"/>
<rect x="164" y="83" width="200" height="321" rx="10" fill="white"/>
<path d="M197 261C196.47 261.001 195.961 261.211 195.586 261.586C195.211 261.961 195.001 262.47 195 263V355.915C195.001 356.446 195.212 356.954 195.586 357.329C195.961 357.704 196.47 357.915 197 357.915H331.131C331.661 357.915 332.169 357.704 332.544 357.329C332.919 356.954 333.13 356.446 333.131 355.915V263C333.13 262.47 332.919 261.961 332.544 261.586C332.17 261.211 331.661 261.001 331.131 261H197Z" fill="#6C63FF"/>
<rect x="126" y="128" width="277" height="69" fill="#6C63FF" fill-opacity="0.08"/>
<path d="M332.824 125C333.05 125 333.274 125.045 333.483 125.131C333.692 125.218 333.882 125.345 334.042 125.505C334.202 125.665 334.329 125.854 334.415 126.064C334.502 126.273 334.547 126.497 334.547 126.723V130.168C334.547 130.625 334.365 131.064 334.042 131.387C333.719 131.71 333.281 131.891 332.824 131.891H196.723C196.497 131.891 196.273 131.847 196.064 131.76C195.854 131.673 195.665 131.547 195.505 131.387C195.345 131.227 195.218 131.037 195.131 130.828C195.045 130.619 195 130.395 195 130.168V126.723C195 126.497 195.045 126.273 195.131 126.064C195.218 125.854 195.345 125.665 195.505 125.505C195.665 125.345 195.854 125.218 196.064 125.131C196.273 125.045 196.497 125 196.723 125H332.824" fill="#E6E6E6"/>
<rect x="117" y="158" width="294" height="5" fill="#6C63FF"/>
<path d="M332.824 191C333.281 191 333.719 191.182 334.042 191.505C334.365 191.828 334.547 192.266 334.547 192.723V196.168C334.547 196.395 334.502 196.619 334.415 196.828C334.329 197.037 334.202 197.227 334.042 197.387C333.882 197.547 333.692 197.673 333.483 197.76C333.274 197.847 333.05 197.891 332.824 197.891H196.723C196.497 197.891 196.273 197.847 196.064 197.76C195.854 197.673 195.665 197.547 195.505 197.387C195.345 197.227 195.218 197.037 195.131 196.828C195.045 196.619 195 196.395 195 196.168V192.723C195 192.497 195.045 192.273 195.131 192.064C195.218 191.854 195.345 191.665 195.505 191.505C195.665 191.345 195.854 191.218 196.064 191.131C196.273 191.045 196.497 191 196.723 191H332.824" fill="#E6E6E6"/>
<path d="M331.824 207C332.281 207 332.719 207.182 333.042 207.505C333.365 207.828 333.547 208.266 333.547 208.723V212.168C333.547 212.625 333.365 213.064 333.042 213.387C332.719 213.71 332.281 213.891 331.824 213.891H195.723C195.266 213.891 194.828 213.71 194.505 213.387C194.182 213.064 194 212.625 194 212.168V208.723C194 208.266 194.182 207.828 194.505 207.505C194.828 207.182 195.266 207 195.723 207H331.824" fill="#E6E6E6"/>
<path d="M272.477 356.941L273.884 357.317L242.937 472.845L64.712 472.504L64.715 471.047L241.82 471.387L272.477 356.941Z" fill="#6C63FF"/>
<path d="M782.009 634.123H524.27V632.017H782.39L782.009 634.123Z" fill="#3F3D56"/>
<path d="M332.824 173C333.281 173 333.719 173.181 334.042 173.505C334.365 173.828 334.547 174.266 334.547 174.723V178.168C334.547 178.625 334.365 179.063 334.042 179.387C333.719 179.71 333.281 179.891 332.824 179.891H196.723C196.497 179.891 196.273 179.847 196.064 179.76C195.854 179.673 195.665 179.547 195.505 179.387C195.345 179.227 195.218 179.037 195.131 178.828C195.045 178.619 195 178.395 195 178.168V174.723C195 174.497 195.045 174.273 195.131 174.064C195.218 173.854 195.345 173.665 195.505 173.505C195.665 173.345 195.854 173.218 196.064 173.131C196.273 173.045 196.497 173 196.723 173H332.824" fill="#E6E6E6"/>
<path d="M332.824 141C333.281 141 333.719 141.182 334.042 141.505C334.365 141.828 334.547 142.266 334.547 142.723V146.168C334.547 146.625 334.365 147.064 334.042 147.387C333.719 147.71 333.281 147.891 332.824 147.891H196.723C196.497 147.891 196.273 147.847 196.064 147.76C195.854 147.673 195.665 147.547 195.505 147.387C195.345 147.227 195.218 147.037 195.131 146.828C195.045 146.619 195 146.395 195 146.168V142.723C195 142.497 195.045 142.273 195.131 142.064C195.218 141.854 195.345 141.665 195.505 141.505C195.665 141.345 195.854 141.218 196.064 141.131C196.273 141.045 196.497 141 196.723 141H332.824" fill="#E6E6E6"/>
<path d="M296.321 94.2745L233.908 94.5519L217 78.8633L267.583 77.8494L309.992 78.4499L296.321 94.2745Z" fill="#2F2E41"/>
<path d="M277.241 161.182L275.833 160.808L306.56 45.221H484.785V46.678H307.679L277.241 161.182Z" fill="#6C63FF"/>
<rect x="172" y="367" width="7" height="25" fill="#E6E6E6"/>
<rect x="175" y="385" width="25" height="7" fill="#E6E6E6"/>
<g clip-path="url(#clip1)">
<path d="M193.232 97.9956L192.984 91L168 91.8834L168.247 98.8791L193.232 97.9956Z" fill="#E6E6E6"/>
<path d="M175.985 119.619L175.102 94.6342L168.106 94.8816L168.989 119.866L175.985 119.619Z" fill="#E6E6E6"/>
</g>
<g clip-path="url(#clip2)">
<path d="M332.696 384.817L332.927 391.813L357.914 390.985L357.682 383.988L332.696 384.817Z" fill="#E6E6E6"/>
<path d="M349.99 363.232L350.818 388.218L357.814 387.986L356.986 363L349.99 363.232Z" fill="#E6E6E6"/>
</g>
<g clip-path="url(#clip3)">
<path d="M333.696 96.9962L333.927 90L358.914 90.8281L358.682 97.8242L333.696 96.9962Z" fill="#E6E6E6"/>
<path d="M350.99 118.581L351.818 93.5946L358.814 93.8264L357.986 118.813L350.99 118.581Z" fill="#E6E6E6"/>
</g>
</g>
<defs>
<clipPath id="clip0">
<rect width="782.39" height="634.123" fill="white"/>
</clipPath>
<clipPath id="clip1">
<rect width="28" height="25" fill="white" transform="translate(192.984 91) rotate(87.9749)"/>
</clipPath>
<clipPath id="clip2">
<rect width="28" height="25" fill="white" transform="translate(332.927 391.813) rotate(-91.8982)"/>
</clipPath>
<clipPath id="clip3">
<rect width="28" height="25" fill="white" transform="matrix(-0.033123 0.999451 0.999451 0.033123 333.927 90)"/>
</clipPath>
</defs>
</svg>
